# xmcd
#
# Track frame offsets:
#        182
#        10212
#        19552
#        29270
#        40472
#        48572
#        58827
#        70582
#        83155
#        94597
#        108315
#        117237
#        128312
#        137937
#
# Disc length: 2006 seconds
#
# Revision: 32
# Processed by: cddbd v1.5.1PL2 Copyright (c) Steve Scherf et al.
# Submitted via: ExactAudioCopy v0.95b3
#
DISCID=b107d40e
DTITLE=The Beatles - With The Beatles
DYEAR=1963
DGENRE=Rock
TTITLE0=It Won't Be Long
TTITLE1=All I've Got To Do
TTITLE2=All My Loving
TTITLE3=Don't Bother Me
TTITLE4=Little Child
TTITLE5=Till There Was You
TTITLE6=Please Mr. Postman
TTITLE7=Roll Over Beethoven
TTITLE8=Hold Me Tight
TTITLE9=You Really Got A Hold On Me
TTITLE10=I Wanna Be Your Man
TTITLE11=Devil In Her Heart
TTITLE12=Not A Second Time
TTITLE13=Money (That's What I Want)
EXTD=\n YEAR: 1963
EXTT0=
EXTT1=
EXTT2=
EXTT3=
EXTT4=
EXTT5=
EXTT6=
EXTT7=
EXTT8=
EXTT9=
EXTT10=
EXTT11=
EXTT12=
EXTT13=
PLAYORDER=
